<?xml version="1.0" encoding="iso-8859-1"?>
<!-- Uploaded to: SVG Repo, www.svgrepo.com, Generator: SVG Repo Mixer Tools -->
<svg version="1.1" id="Layer_1" xmlns="http://www.w3.org/2000/svg" xmlns:xlink="http://www.w3.org/1999/xlink" 
	 viewBox="0 0 512 512" xml:space="preserve">
<rect x="8" y="48" style="fill:#FFFFFF;" width="448" height="400"/>
<path style="fill:#DCDDDE;" d="M232,56v303.624c-57.744,0-105.232-43.704-111.312-99.816C120.256,263.816,120,267.88,120,272
	c0,55.024,39.68,100.792,92,110.224c11.52,2.072,20,11.904,20,23.608V440h216V56H232z"/>
<g>
	<polygon style="fill:#FFD768;" points="488,304 504,304 504,272 488,272 488,240 344,240 344,272 360,272 360,304 344,304 344,336 
		344,368 360,368 360,400 344,400 344,432 360,432 360,464 504,464 504,432 488,432 488,400 504,400 504,368 488,368 488,336 	"/>
	<circle style="fill:#FFD768;" cx="344" cy="392" r="72"/>
</g>
<g>
	<rect x="64" y="104" style="fill:#0C3847;" width="16" height="16"/>
	<rect x="384" y="104" style="fill:#0C3847;" width="16" height="16"/>
	<rect x="64" y="376" style="fill:#0C3847;" width="16" height="16"/>
	<rect x="224" y="312" style="fill:#0C3847;" width="16" height="24"/>
	<rect x="224" y="160" style="fill:#0C3847;" width="16" height="24"/>
	<rect x="144" y="240" style="fill:#0C3847;" width="24" height="16"/>
	<rect x="296" y="240" style="fill:#0C3847;" width="24" height="16"/>
	
		<rect x="273.706" y="293.752" transform="matrix(0.7073 0.7069 -0.7069 0.7073 296.9316 -113.648)" style="fill:#0C3847;" width="24" height="15.992"/>
	
		<rect x="166.234" y="186.241" transform="matrix(-0.7073 -0.7069 0.7069 -0.7073 166.9926 457.6175)" style="fill:#0C3847;" width="24" height="15.992"/>
	
		<rect x="170.267" y="289.75" transform="matrix(0.707 0.7072 -0.7072 0.707 265.6296 -37.6579)" style="fill:#0C3847;" width="15.992" height="24"/>
	
		<rect x="277.732" y="182.254" transform="matrix(-0.707 -0.7072 0.7072 -0.707 350.3623 533.6624)" style="fill:#0C3847;" width="15.992" height="24"/>
	<path style="fill:#0C3847;" d="M279.344,241.36l14.776-15.32L273,223.408c-11.608-19.472-35.328-28.32-56.992-20.656
		c-12.088,4.264-21.792,12.992-27.32,24.56c-5.52,11.568-6.216,24.6-1.944,36.688c4.272,12.096,13,21.792,24.568,27.312
		c6.56,3.136,13.584,4.712,20.648,4.712c5.392,0,10.808-0.92,16.04-2.776C269.672,285.592,282.552,263.8,279.344,241.36z M232,280
		c-17.672,0-32-14.328-32-32s14.328-32,32-32s32,14.328,32,32S249.672,280,232,280z"/>
</g>
<path style="fill:#FFFFFF;" d="M344,344c-26.472,0-48,21.528-48,48s21.528,48,48,48s48-21.528,48-48S370.472,344,344,344z M344,424
	c-17.648,0-32-14.352-32-32s14.352-32,32-32s32,14.352,32,32S361.648,424,344,424z"/>
<path style="fill:#0C3847;" d="M496,328v-16h16v-48h-16v-32h-32V40H0v416h72v16h72v-16h152.208c13.352,10,29.864,16,47.792,16
	c2.704,0,5.368-0.144,8-0.408V472h160v-48h-16v-16h16v-48h-16v-16V328z M480,248v16H352v-16H480z M422.384,408H480v16h-62.728
	C419.504,418.912,421.256,413.568,422.384,408z M407.848,344H480v16h-62.728C414.76,354.272,411.568,348.936,407.848,344z M400,328
	h-8.208c-11.344-8.496-24.952-14.112-39.792-15.592V312h128v16H400z M287.488,335.432c-16.08,10.2-35.08,16.192-55.488,16.192
	c-57.344,0-104-46.656-104-104s46.656-104,104-104s104,46.656,104,104c0,29.928-12.784,56.872-33.088,75.864
	C297.304,326.864,292.088,330.832,287.488,335.432z M265.616,408H48v-48h24v-80H48v-64h24v-80H48V88h368v144h-32v-64h16v-16h-16h-16
	v80h-17.136c-7.696-58.8-58-104.376-118.864-104.376c-66.168,0-120,53.832-120,120s53.832,120,120,120
	c13.344,0,26.144-2.28,38.144-6.32C266.2,370.768,264,381.128,264,392C264,397.48,264.56,402.832,265.616,408z M56,296v48H40v-48H56
	z M56,152v48H40v-48H56z M352,280v16h-10.272c2.28-5.152,4.16-10.496,5.712-16H352z M336,307.24v5.168
	c-1.168,0.12-2.304,0.344-3.456,0.512C333.752,311.064,334.896,309.16,336,307.24z M72,440H16V56h432v176h-16V72H32v64h-8v80h8v64
	h-8v80h8v64h238.728c2.512,5.728,5.704,11.064,9.424,16H144H72z M280,392c0-17.096,6.776-32.608,17.736-44.096
	c5.248-3.448,10.152-7.352,14.784-11.552C321.824,331.056,332.552,328,344,328c15.128,0,29.032,5.304,40,14.12V344h2.192
	C399.528,355.736,408,372.88,408,392c0,35.288-28.712,64-64,64S280,427.288,280,392z M496,456H391.792
	c6.08-4.552,11.48-9.936,16.048-16H496V456z M496,392h-72c0-5.48-0.56-10.832-1.616-16H496V392z M368,296v-16h128v16H368z"/>
<circle style="fill:#44C8F5;" cx="232" cy="248" r="32"/>
</svg>